{"title":"Freezer 2014 BRrip x264 Ac3-MiLLENiUM","uid":9471417,"size":768616811,"categoryP":"video","categoryS":"movies","magnet":"?xt=urn:btih:9d7773a43121d6ee141a96140915ad458b1ba485&amp;dn=Freezer+2014+BRrip+x264+Ac3-MiLLENiUM&amp;tr=udp%3A%2F%2Ftracker.openbittorrent.com%3A80&amp;tr=udp%3A%2F%2Fopen.demonii.com%3A1337&amp;tr=udp%3A%2F%2Ftracker.coppersurfer.tk%3A6969&amp;tr=udp%3A%2F%2Fexodus.desync.com%3A6969","seeders":1,"leechers":1,"uploader":"NewSky005","files":6,"time":1389585496,"description":"General &lt;a href=&quot;\nhttp://www.imdb.com/title/tt2325002/?ref_=nv_sr_1&quot; rel=&quot;nofollow&quot; target=&quot;_NEW&quot;&gt;\nhttp://www.imdb.com/title/tt2325002/?ref_=nv_sr_1&lt;/a&gt;\nUnique ID                                : 208785579930915123586357556968239658919 (0x9D12A3D94D657E53A9A6D38C33ABF7A7)\nComplete name                            : freezer 2014 BRrip x264 Ac3-MiLLENiUM.mkv\nsource                                   : Bluray [thanks]\nFormat                                   : Matroska\nFormat version                           : Version 4 / Version 2\nFile size                                : 714 MiB\nDuration                                 : 1h 22mn\nOverall bit rate mode                    : Variable\nOverall bit rate                         : 1 214 Kbps\nEncoded date                             : UTC 2014-01-12 20:42:54\nWriting application                      : mkvmerge v6.5.0 ('Isn't she lovely') built on Oct 20 2013 12:50:05\nWriting library                          : libebml v1.3.0 + libmatroska v1.4.1\n\nVideo\nID                                       : 1\nFormat                                   : AVC\nFormat/Info                              : Advanced Video Codec\nFormat profile                           : &lt;a class=&quot;__cf_email__&quot; href=&quot;/cdn-cgi/l/email-protection&quot; data-cfemail=&quot;531b3a343b131f677d62&quot;&gt;[email&amp;#160;protected]&lt;/a&gt;&lt;script cf-hash='f9e31' type=&quot;text/javascript&quot;&gt;\n/* &lt;![CDATA[ */!function(){try{var t=&quot;currentScript&quot;in document?document.currentScript:function(){for(var t=document.getElementsByTagName(&quot;script&quot;),e=t.length;e--;)if(t[e].getAttribute(&quot;cf-hash&quot;))return t[e]}();if(t&amp;&amp;t.previousSibling){var e,r,n,i,c=t.previousSibling,a=c.getAttribute(&quot;data-cfemail&quot;);if(a){for(e=&quot;&quot;,r=parseInt(a.substr(0,2),16),n=2;a.length-n;n+=2)i=parseInt(a.substr(n,2),16)^r,e+=String.fromCharCode(i);e=document.createTextNode(e),c.parentNode.replaceChild(e,c)}}}catch(u){}}();/* ]]&gt; */&lt;/script&gt;\nFormat settings, CABAC                   : Yes\nFormat settings, ReFrames                : 3 frames\nCodec ID                                 : V_MPEG4/ISO/AVC\nDuration                                 : 1h 22mn\nBit rate mode                            : Variable\nBit rate                                 : 806 Kbps\nMaximum bit rate                         : 40.0 Mbps\nWidth                                    : 720 pixels\nHeight                                   : 304 pixels\nDisplay aspect ratio                     : 2.35:1\nFrame rate                               : 23.976 fps\nColor space                              : YUV\nChroma subsampling                       : 4:2:0\nBit depth                                : 8 bits\nScan type                                : Progressive\nBits/(Pixel*Frame)                       : 0.154\nStream size                              : 474 MiB (66%)\nWriting library                          : x264 core 140 r2377 1ca7bb9\nLanguage                                 : English\nDefault                                  : Yes\nForced                                   : No\nColor primaries                          : BT.709-5, BT.1361, IEC 61966-2-4, SMPTE RP177\nTransfer characteristics                 : BT.709-5, BT.1361\nMatrix coefficients                      : BT.709-5, BT.1361, IEC 61966-2-4 709, SMPTE RP177\n\nAudio\nID                                       : 2\nFormat                                   : AC-3\nFormat/Info                              : Audio Coding 3\nMode extension                           : CM (complete main)\nCodec ID                                 : A_AC3\nDuration                                 : 1h 22mn\nBit rate mode                            : Constant\nBit rate                                 : 384 Kbps\nChannel(s)                               : 6 channels\nChannel positions                        : Front: L C R, Side: L R, LFE\nSampling rate                            : 48.0 KHz\nBit depth                                : 16 bits\nCompression mode                         : Lossy\nStream size                              : 226 MiB (32%)\nDefault                                  : Yes\nForced                                   : No\nScreen &lt;a href=&quot;\nhttp://1337x.org/torrent/719605/0/&quot; rel=&quot;nofollow&quot; target=&quot;_NEW&quot;&gt;\nhttp://1337x.org/torrent/719605/0/&lt;/a&gt;","torrent":{"xt":"urn:btih:9d7773a43121d6ee141a96140915ad458b1ba485","amp;dn":"Freezer+2014+BRrip+x264+Ac3-MiLLENiUM","amp;tr":["udp%3A%2F%2Ftracker.openbittorrent.com%3A80","udp%3A%2F%2Fopen.demonii.com%3A1337","udp%3A%2F%2Ftracker.coppersurfer.tk%3A6969","udp%3A%2F%2Fexodus.desync.com%3A6969"],"infoHash":"9d7773a43121d6ee141a96140915ad458b1ba485","infoHashBuffer":{"type":"Buffer","data":[157,119,115,164,49,33,214,238,20,26,150,20,9,21,173,69,139,27,164,133]},"announce":[],"urlList":[]}}